<?xml version="1.0" standalone="no"?>
<!DOCTYPE svg PUBLIC "-//W3C//DTD SVG 20010904//EN"
 "http://www.w3.org/TR/2001/REC-SVG-20010904/DTD/svg10.dtd">
<svg version="1.0" xmlns="http://www.w3.org/2000/svg"
 viewBox="0 0 500.000000 500.000000"
 preserveAspectRatio="xMidYMid meet">

 <style>
  path {
    fill: white;
  }
  .dot{
    fill: red
  }
 
 </style>

<g transform="translate(0.000000,500.000000) scale(0.100000,-0.100000)"
fill="#000000" stroke="none">
<path d="M2210 2460 l0 -170 30 0 c28 0 30 2 30 39 0 59 18 61 64 8 35 -41 46
-47 79 -47 l38 0 -56 66 -56 67 50 51 c28 29 51 55 51 59 0 4 -15 7 -32 7 -27
0 -42 -10 -85 -57 l-52 -58 -1 103 0 102 -30 0 -30 0 0 -170z" />
<path d="M790 2451 l0 -161 35 0 35 0 0 59 0 59 60 4 c80 6 110 32 110 98 0
37 -5 51 -26 71 -23 21 -36 24 -120 27 l-94 4 0 -161z m164 93 c38 -37 7 -84
-55 -84 l-39 0 0 50 0 50 39 0 c23 0 46 -7 55 -16z" />
<path d="M1520 2571 c0 -20 -6 -30 -20 -34 -11 -3 -20 -13 -20 -22 0 -9 9 -19
20 -22 18 -5 20 -14 20 -92 0 -54 5 -92 12 -99 7 -7 31 -12 55 -12 36 0 43 3
43 20 0 13 -7 20 -19 20 -25 0 -31 19 -31 96 0 62 1 64 25 64 20 0 25 5 25 25
0 20 -5 25 -25 25 -21 0 -25 5 -25 30 0 27 -3 30 -30 30 -26 0 -30 -3 -30 -29z" />
<path d="M2620 2435 c0 -131 2 -155 15 -155 11 0 15 11 15 38 0 30 7 45 33 70
l34 33 62 -71 c34 -38 69 -70 77 -70 8 0 14 2 14 5 0 3 -29 40 -65 82 -36 42
-65 79 -65 82 0 4 27 33 60 66 33 33 60 63 60 67 0 25 -38 -2 -113 -82 -47
-49 -88 -90 -92 -90 -3 0 -5 41 -5 90 0 73 -3 90 -15 90 -13 0 -15 -24 -15
-155z"/>
<path d="M1096 2519 c-14 -11 -26 -29 -26 -40 0 -27 51 -26 68 1 16 25 48 26
62 1 17 -32 12 -41 -24 -41 -71 0 -116 -33 -116 -84 0 -45 30 -71 83 -70 27 1
45 8 54 20 12 16 13 16 13 1 0 -12 8 -17 30 -17 l30 0 0 100 c0 94 -2 103 -25
125 -32 33 -110 35 -149 4z m114 -138 c0 -47 -72 -71 -86 -29 -8 27 17 48 58
48 21 0 28 -5 28 -19z"/>
<path d="M1330 2415 l0 -125 29 0 29 0 3 79 c4 84 23 121 61 121 13 0 18 7 18
25 0 32 -31 34 -60 3 l-20 -22 0 22 c0 18 -6 22 -30 22 l-30 0 0 -125z"/>
<path d="M1718 2524 c-71 -38 -79 -175 -14 -218 33 -21 80 -28 112 -16 35 14
74 49 74 67 0 21 -53 16 -68 -7 -7 -12 -23 -20 -41 -20 -31 0 -45 12 -55 48
-7 22 -6 22 83 22 85 0 91 1 91 20 0 33 -26 86 -51 104 -29 20 -95 20 -131 0z
m94 -41 c33 -29 22 -43 -32 -43 -54 0 -65 14 -34 44 20 21 43 20 66 -1z"/>
<path d="M1964 2506 c-31 -31 -34 -39 -34 -94 0 -45 5 -66 21 -85 27 -35 89
-52 134 -37 32 11 75 51 75 71 0 17 -56 9 -73 -11 -22 -27 -62 -26 -81 2 -30
43 -22 48 75 48 l91 0 -7 33 c-10 46 -32 85 -54 97 -11 5 -41 10 -66 10 -40 0
-52 -5 -81 -34z m120 -28 c24 -34 20 -38 -39 -38 -59 0 -67 8 -35 40 26 26 55
25 74 -2z"/>
<path d="M2920 2424 c0 -81 1 -87 29 -115 34 -34 86 -39 126 -13 23 15 25 15
25 0 0 -9 7 -16 15 -16 12 0 15 19 15 115 0 96 -3 115 -15 115 -12 0 -15 -15
-15 -71 0 -101 -17 -129 -82 -129 -54 0 -68 26 -68 122 0 63 -3 78 -15 78 -12
0 -15 -16 -15 -86z"/>
<path d="M3220 2395 c0 -96 3 -115 15 -115 12 0 15 16 15 80 0 94 16 120 74
120 55 0 66 -19 66 -116 0 -65 3 -84 14 -84 10 0 15 20 17 79 5 99 22 123 83
119 52 -4 66 -29 66 -125 0 -60 3 -73 16 -73 14 0 15 13 12 91 -3 86 -5 92
-32 116 -25 21 -37 24 -73 20 -24 -2 -52 -12 -61 -20 -15 -14 -19 -14 -41 4
-28 23 -88 25 -119 3 -20 -14 -22 -14 -22 0 0 9 -7 16 -15 16 -12 0 -15 -19
-15 -115z"/>
<path d="M3701 2497 c-23 -12 -30 -36 -7 -28 6 3 32 7 57 9 40 3 49 0 63 -19
28 -41 21 -49 -43 -49 -70 0 -103 -21 -103 -65 0 -56 86 -87 140 -49 20 14 22
14 22 0 0 -9 7 -16 15 -16 12 0 15 15 15 74 0 83 -14 132 -40 146 -26 14 -90
12 -119 -3z m125 -122 c8 -20 -20 -62 -46 -70 -31 -10 -68 2 -80 25 -8 15 -6
24 10 40 25 25 107 29 116 5z"/>
<path  d="M3940 2395 c0 -92 3 -115 14 -115 10 0 15 20 17 79 4 87 23 121 66
121 14 0 23 6 23 15 0 22 -42 19 -68 -5 l-22 -21 0 21 c0 11 -7 20 -15 20 -12
0 -15 -19 -15 -115z"/>
<path class="dot" d="M4100 2299 c0 -25 33 -22 38 4 2 12 -3 17 -17 17 -15 0 -21 -6 -21
-21z" />
</g>
</svg>
